<svg width="138" height="45" viewBox="0 0 138 45" fill="none" xmlns="http://www.w3.org/2000/svg">
<path fill-rule="evenodd" clip-rule="evenodd" d="M86.7979 0.87574C86.7979 0.87574 115.133 22.4487 137.647 22.4487C115.14 22.4487 86.7979 44.0281 86.7979 44.0281L96.5406 23L0.490234 23L0.490235 22L96.588 22L86.7979 0.87574Z" fill="black"/>
<path d="M137.647 22.1987C137.785 22.1987 137.897 22.3107 137.897 22.4487C137.897 22.5868 137.785 22.6987 137.647 22.6987L137.647 22.1987ZM86.7979 0.87574L86.571 0.980862C86.5227 0.876617 86.5517 0.752861 86.6412 0.680881C86.7308 0.608898 86.8579 0.607227 86.9493 0.676826L86.7979 0.87574ZM86.7979 44.0281L86.9493 44.227C86.8579 44.2966 86.7308 44.295 86.6412 44.223C86.5517 44.151 86.5227 44.0273 86.571 43.923L86.7979 44.0281ZM96.5406 23L96.5406 22.75C96.6259 22.75 96.7053 22.7935 96.7513 22.8654C96.7972 22.9373 96.8033 23.0277 96.7674 23.1051L96.5406 23ZM0.490234 23L0.490234 23.25C0.352163 23.25 0.240234 23.1381 0.240234 23L0.490234 23ZM0.490235 22L0.240235 22C0.240235 21.8619 0.352163 21.75 0.490235 21.75L0.490235 22ZM96.588 22L96.8148 21.8949C96.8507 21.9723 96.8446 22.0627 96.7987 22.1346C96.7528 22.2065 96.6733 22.25 96.588 22.25L96.588 22ZM137.647 22.6987C126.324 22.6987 113.565 17.2787 103.66 11.8818C98.7027 9.18056 94.4505 6.47963 91.4376 4.45399C89.931 3.44109 88.7339 2.59684 87.9132 2.00554C87.5029 1.70989 87.1866 1.47747 86.9726 1.31881C86.8657 1.23948 86.7843 1.17859 86.7296 1.13746C86.7023 1.11689 86.6816 1.10127 86.6676 1.09074C86.6607 1.08548 86.6554 1.0815 86.6519 1.07881C86.6501 1.07747 86.6488 1.07644 86.6479 1.07575C86.6474 1.07541 86.647 1.07513 86.6468 1.07495C86.6466 1.07476 86.6464 1.07465 86.7979 0.87574C86.9493 0.676826 86.9494 0.676884 86.9495 0.677017C86.9498 0.677174 86.95 0.677391 86.9504 0.6777C86.9513 0.678318 86.9525 0.67926 86.9542 0.680531C86.9575 0.683067 86.9626 0.686897 86.9693 0.692005C86.9828 0.702221 87.0031 0.717537 87.0301 0.737789C87.0839 0.778294 87.1644 0.838543 87.2705 0.917217C87.4827 1.07457 87.7971 1.30563 88.2055 1.59987C89.0223 2.18835 90.2149 3.02948 91.7165 4.03905C94.72 6.05835 98.9587 8.75067 103.899 11.4427C113.791 16.8322 126.456 22.1987 137.647 22.1987L137.647 22.6987ZM86.7979 44.0281C86.6464 43.8292 86.6466 43.8291 86.6468 43.8289C86.647 43.8288 86.6474 43.8285 86.6479 43.8281C86.6488 43.8274 86.6501 43.8264 86.6519 43.8251C86.6554 43.8224 86.6607 43.8184 86.6676 43.8131C86.6815 43.8026 86.7022 43.787 86.7296 43.7664C86.7843 43.7253 86.8657 43.6644 86.9727 43.585C87.1867 43.4263 87.503 43.1938 87.9135 42.8981C88.7344 42.3066 89.9316 41.4621 91.4384 40.4489C94.4519 38.4227 98.7047 35.7209 103.662 33.0189C113.568 27.6204 126.327 22.1987 137.647 22.1987L137.647 22.6987C126.459 22.6987 113.794 28.0668 103.902 33.458C98.9607 36.1508 94.7214 38.8439 91.7174 40.8638C90.2155 41.8737 89.0228 42.7151 88.2058 43.3037C87.7973 43.5981 87.4828 43.8292 87.2706 43.9866C87.1645 44.0653 87.084 44.1255 87.0301 44.1661C87.0031 44.1863 86.9828 44.2016 86.9693 44.2119C86.9626 44.217 86.9575 44.2208 86.9542 44.2233C86.9525 44.2246 86.9513 44.2256 86.9504 44.2262C86.95 44.2265 86.9498 44.2267 86.9495 44.2269C86.9494 44.227 86.9493 44.227 86.7979 44.0281ZM96.7674 23.1051L87.0247 44.1332L86.571 43.923L96.3137 22.8949L96.7674 23.1051ZM0.490234 22.75L96.5406 22.75L96.5406 23.25L0.490234 23.25L0.490234 22.75ZM0.740235 22L0.740234 23L0.240234 23L0.240235 22L0.740235 22ZM96.588 22.25L0.490235 22.25L0.490235 21.75L96.588 21.75L96.588 22.25ZM87.0247 0.770618L96.8148 21.8949L96.3612 22.1051L86.571 0.980862L87.0247 0.770618Z" fill="black"/>
</svg>
