<svg width="107" height="28" viewBox="0 0 107 28" fill="none" xmlns="http://www.w3.org/2000/svg">
<path d="M23.8484 1.03302L14.2417 20.2396L4.60148 1.03302H0.128906L14.2897 27.9729L28.2203 1.03302H23.8484Z" fill="black"/>
<path d="M34.8691 1.03302V26.916H38.8863V1.03302H34.8691Z" fill="black"/>
<path d="M58.2864 1.00433L49.4707 1.03781V26.9208H58.2864C67.6726 26.9208 73.2046 21.4161 73.2046 14.0176C73.2046 6.61901 67.6726 0.970851 58.2864 1.00433ZM58.272 23.2813H53.4591V4.61991L58.272 4.63904C65.7072 4.6773 69.197 8.57506 69.197 14.0223C69.197 19.4696 65.7072 23.2622 58.272 23.2813Z" fill="black"/>
<path d="M91.9242 0L77.1211 26.9447H81.5218L83.4776 23.2861L84.5658 21.2487L86.3395 17.9105L91.8763 7.51333L95.8791 15.0745L97.3843 17.9105L99.1628 21.2487H99.1676L99.9873 22.803L100.093 22.9991L102.173 26.9351H106.483L91.9242 0Z" fill="black"/>
</svg>
